<svg xmlns="http://www.w3.org/2000/svg" xmlns:xlink="http://www.w3.org/1999/xlink" width="180.101" height="196.1" viewBox="0 0 180.101 196.1">
  <defs>
    <clipPath id="clip-path">
      <rect id="Rectangle_51" data-name="Rectangle 51" width="4.883" height="9.403"/>
    </clipPath>
    <clipPath id="clip-path-2">
      <rect id="Rectangle_52" data-name="Rectangle 52" width="25.016" height="14.527"/>
    </clipPath>
    <clipPath id="clip-path-3">
      <rect id="Rectangle_53" data-name="Rectangle 53" width="8.379" height="13.322"/>
    </clipPath>
    <clipPath id="clip-path-4">
      <rect id="Rectangle_54" data-name="Rectangle 54" width="49.308" height="33.153"/>
    </clipPath>
    <clipPath id="clip-path-5">
      <rect id="Rectangle_55" data-name="Rectangle 55" width="5.124" height="11.754"/>
    </clipPath>
    <clipPath id="clip-path-6">
      <rect id="Rectangle_56" data-name="Rectangle 56" width="2.049" height="1.688"/>
    </clipPath>
    <clipPath id="clip-path-7">
      <rect id="Rectangle_57" data-name="Rectangle 57" width="10.428" height="9.825"/>
    </clipPath>
    <clipPath id="clip-path-8">
      <rect id="Rectangle_58" data-name="Rectangle 58" width="5.365" height="14.768"/>
    </clipPath>
    <clipPath id="clip-path-9">
      <rect id="Rectangle_59" data-name="Rectangle 59" width="8.921" height="12.297"/>
    </clipPath>
    <clipPath id="clip-path-10">
      <rect id="Rectangle_60" data-name="Rectangle 60" width="6.691" height="7.173"/>
    </clipPath>
    <clipPath id="clip-path-11">
      <rect id="Rectangle_61" data-name="Rectangle 61" width="3.978" height="9.765"/>
    </clipPath>
    <clipPath id="clip-path-12">
      <rect id="Rectangle_62" data-name="Rectangle 62" width="2.351" height="2.954"/>
    </clipPath>
  </defs>
  <g id="Group_763" data-name="Group 763" transform="translate(-377.062 -78.466)">
    <g id="Group_762" data-name="Group 762">
      <path id="Path_545" data-name="Path 545" d="M447.942,156.823c-.784.723-2.532.241-2.954,1.266-.964,2.532.482,3.617,1.145,4.521a8.927,8.927,0,0,0,2.11,1.507c3.074,1.869,4.461,5.666,5.546,9.1,4.1,12.658,8.138,25.317,12.237,37.976a15.257,15.257,0,0,0,2.954,6.028c2.893,3.014,7.6,3.014,11.513,2.049a73.321,73.321,0,0,0,11.513-4.219q14.2-6.058,28.693-11.091c1.326-.482,2.833-1.085,3.195-2.471a4.2,4.2,0,0,0-.06-1.929c-3.074-16.516-13.02-30.8-19.771-46.113a11.705,11.705,0,0,1-1.386-5.425c.12-1.808,1.145-3.617.784-5.425-.362-1.989-1.808-4.4-3.737-4.883-2.23-.542-2.713-1.145-6.811-.362-6.51,1.206-12.357,5.244-18.686,7.294-5.968,1.929-12.357,3.677-18.023,6.45a33.261,33.261,0,0,0-8.258,5.726" transform="translate(-67.604 -58.511)" fill="#957a5b"/>
      <path id="Path_546" data-name="Path 546" d="M447.24,154.9a7.267,7.267,0,0,0-1.929,2.532,3.2,3.2,0,0,0,.3,3.195,7.215,7.215,0,0,0,2.049,1.507c3.014,1.869,4.34,5.666,5.485,9.162,4.1,12.659,8.138,25.317,12.236,37.976a15.257,15.257,0,0,0,2.954,6.028c2.833,3.014,7.354,3.074,11.152,2.17a67.3,67.3,0,0,0,11.031-4.039c9.042-3.858,18.2-7.475,27.487-10.73,1.266-.422,2.713-1.085,3.014-2.411a5.234,5.234,0,0,0-.06-1.929c-3.135-16.456-12.9-30.8-19.591-46.173a11.7,11.7,0,0,1-1.386-5.425c.121-1.808,1.025-3.556.723-5.365a5.337,5.337,0,0,0-4.1-3.918A11.8,11.8,0,0,0,491,137.9c-6.209,1.447-12.3,3.255-18.385,5.184-5.727,1.869-11.815,3.5-17.24,6.209a33.152,33.152,0,0,0-8.138,5.606" transform="translate(-67.747 -58.636)" fill="#d2ab7d"/>
      <path id="Path_547" data-name="Path 547" d="M478.671,145.029a10.891,10.891,0,0,0-1.326,5.365,1.8,1.8,0,0,1-.241,1.145,2.967,2.967,0,0,1-.9.6c-2.291.964-4.762,2.833-4.581,5.3.06.663.3,1.266.3,1.869a17.182,17.182,0,0,1-.181,1.748c-.06,1.808,1.266,3.315,1.688,5.063a2.167,2.167,0,0,1-.121,1.628,2.715,2.715,0,0,1-1.145.844,7,7,0,0,0-3.315,7.716c-1.145,0-1.989,1.145-2.532,2.17a15.133,15.133,0,0,0,4.1,18.264,4.629,4.629,0,0,1,.965.9,6.527,6.527,0,0,1,.663,1.808c.723,2.471,2.893,4.219,4.4,6.39.663,1.025,1.206,2.11,1.869,3.074a11.011,11.011,0,0,0,12.779,3.978c6.992-2.773,9.4-12.176,16.275-15.19a6.115,6.115,0,0,1,3.074-.6,13.406,13.406,0,0,1,3.556,1.326,14.771,14.771,0,0,0,17.541-4.641,4.2,4.2,0,0,0,.964-2.411,5.08,5.08,0,0,0-1.206-2.652c-1.447-1.989-2.954-3.918-4.4-5.907a3.957,3.957,0,0,0-2.17-1.808,5.319,5.319,0,0,0-2.17.181,8.549,8.549,0,0,1-7.113-2.17,5.937,5.937,0,0,1-2.049-4.34c.06-.723.241-1.447.3-2.23a4.568,4.568,0,0,0-2.471-4.219,2.882,2.882,0,0,0-.723-4.641c.241-1.688-1.085-3.255-2.532-4.28-1.386-1.025-3.074-1.869-3.858-3.376a12.746,12.746,0,0,1-.9-3.978,3.979,3.979,0,0,0-2.23-3.195c-1.567-.482-3.556.663-4.7-.543-.723-.723-.6-1.869-.663-2.833s-.6-2.17-1.628-2.11a6.15,6.15,0,0,0-1.326.542,3.366,3.366,0,0,1-3.255-.964,8.754,8.754,0,0,0-2.893-2.049c-2.351-.844-6.751,2.411-7.836,4.219" transform="translate(-75.608 -59.979)" fill="#f8f1d8"/>
      <path id="Path_548" data-name="Path 548" d="M476.107,231.567a1.123,1.123,0,0,0-.723.543,1.253,1.253,0,0,0,.06.663,12.549,12.549,0,0,0,.723,1.929c.121.241.241.543.482.6a.9.9,0,0,0,.844-.241,9.321,9.321,0,0,0,1.688-2.351c.543-.784,1.628-1.447,2.471-.964a1.916,1.916,0,0,1,.6.6,4.5,4.5,0,0,1-1.326,6.269c-.3.181-.6.362-.663.663a1.255,1.255,0,0,0,.181.784c.542.964,1.025,1.989,1.567,2.954.241.422.6.964,1.145.844a1.451,1.451,0,0,0,.482-.362c.9-1.145.784-2.773,1.447-4.1a1.22,1.22,0,0,1,.844-.784c.723-.121,1.206.784,1.145,1.507a8.872,8.872,0,0,0-.241,2.17.46.46,0,0,0,.121.3c.241.181.6-.121.723-.422.362-.844.482-2.049,1.386-2.17.663-.06,1.145.6,1.447,1.145a12.542,12.542,0,0,1,1.085,3.617c.121,1.085.3,2.351,1.206,2.833,1.085.542,2.291-.3,3.074-1.145a4.44,4.44,0,0,0,1.326-2.291,4.292,4.292,0,0,0-.9-2.471c-.964-1.447-1.929-2.954-2.954-4.34a35.147,35.147,0,0,0-5.365-6.209,15.072,15.072,0,0,0-6.751-3.617c-1.567-.3-1.688,0-2.291,1.206a5.035,5.035,0,0,1-2.833,2.833" transform="translate(-79.795 -94.436)" fill="#f4e9d1"/>
      <path id="Path_549" data-name="Path 549" d="M554.546,210.568a2.028,2.028,0,0,1,1.025-.482c1.025-.181,1.808.784,2.411,1.567.181.3.422.6.3.9a1.081,1.081,0,0,1-.3.422c-.9.9-2.351,1.206-3.014,2.291a.972.972,0,0,0-.181.543c0,.542.663.784,1.145.723a10.262,10.262,0,0,0,1.447-.542,2.994,2.994,0,0,1,2.713.663,5.182,5.182,0,0,1,1.447,2.471c.121.482.241,1.085-.121,1.447a1.788,1.788,0,0,1-.9.422,23.169,23.169,0,0,1-4.581.482,5.582,5.582,0,0,0-1.989.181,1.591,1.591,0,0,0-1.206,1.386c0,.362.121.663.121,1.025a1.958,1.958,0,0,1-.723,1.326,7.017,7.017,0,0,1-5.666,1.628,14.057,14.057,0,0,1-5.606-2.23,1.625,1.625,0,0,1-.482-.422,1.172,1.172,0,0,1-.181-.784c.06-1.869,1.929-3.134,3.436-4.28,2.049-1.507,3.5-3.376,5.365-5.063a10.8,10.8,0,0,1,2.291-1.326,20.253,20.253,0,0,0,3.255-2.351" transform="translate(-105.551 -87.542)" fill="#f4e9d1"/>
      <path id="Path_550" data-name="Path 550" d="M486.492,227.184a11.215,11.215,0,0,0,2.23,2.532c2.411,1.869,5.968,1.567,8.74.181s4.943-3.556,7.354-5.485a39.987,39.987,0,0,1,12.478-6.812,29.358,29.358,0,0,0,5-1.869,6.776,6.776,0,0,0,3.5-3.918c.723-2.652-.844-5.365-2.713-7.354a10.2,10.2,0,0,0-3.556-2.652c-2.351-.9-4.943-.3-7.294.663-3.8,1.628-7.113,4.159-10.669,6.329-3.556,2.11-7.6,3.858-11.694,3.5-2.17-.181-4.22-.964-6.39-1.025a6.163,6.163,0,0,0-4.219,1.266c-1.688,1.447-1.567,2.291-.422,3.978,2.471,3.617,5.063,7.113,7.655,10.669" transform="translate(-80.838 -84.086)" fill="#ebe2cc"/>
      <path id="Path_551" data-name="Path 551" d="M522.35,167.641a5.039,5.039,0,0,0,1.386-1.085,2.83,2.83,0,0,0-1.567-2.954c.241-1.628-.964-3.074-2.291-4.1l-.362.181c-2.652,1.206-5,3.556-7.957,3.5a.65.65,0,0,1-.482-.121c-.241-.181-.241-.482-.241-.784.121-2.411,1.748-4.4,2.713-6.631a11.227,11.227,0,0,0,.964-4.883,3.029,3.029,0,0,0-1.929-1.989c-.06,0-.121-.06-.181-.06-.06.06-.181.06-.241.121l-3.315,1.929a13.59,13.59,0,0,0-2.17,1.447c-1.628,1.386-2.773,3.5-4.822,4.159a1.173,1.173,0,0,1-.9,0c-.482-.3-.362-1.025-.241-1.567a14.611,14.611,0,0,1,2.713-5.787c.964-1.025,2.291-1.869,2.893-3.134a6.891,6.891,0,0,0,.422-1.929,1.242,1.242,0,0,0-1.145-.663,6.151,6.151,0,0,0-1.326.543,2.169,2.169,0,0,1-1.386.06c-1.808,2.17-2.471,5.184-3.677,7.776-.241.543-.9,1.206-1.386.844a2.552,2.552,0,0,1-.3-.422,7.717,7.717,0,0,1-.844-5.124c.241-1.206.964-2.351,1.266-3.556a3.543,3.543,0,0,0-.362-2.713,6.728,6.728,0,0,0-3.376,1.025,2.962,2.962,0,0,1,1.386,2.532,10.974,10.974,0,0,1-.482,3.134c-.844,4.762,1.025,9.7,4.039,13.5a11.092,11.092,0,0,0,2.713,2.592c2.11,1.266,4.762,1.326,6.992,2.351,1.989.9,3.677,2.532,5.787,3.074a9.827,9.827,0,0,0,3.978,0,15.169,15.169,0,0,0,3.737-1.266" transform="translate(-87.279 -59.986)" fill="#f4e9d1"/>
      <path id="Path_552" data-name="Path 552" d="M476.06,169.961A18.912,18.912,0,0,0,469.43,192.2a41.3,41.3,0,0,0,6.992,12.237,28.372,28.372,0,0,0,6.329,6.269,11.88,11.88,0,0,0,8.5,2.049c4.883-.9,8.138-5.365,12.478-7.836,2.954-1.628,6.329-2.351,9.223-4.1a15.037,15.037,0,0,0,6.751-9.343,16.6,16.6,0,0,0-1.507-11.513c-3.135-5.847-9.343-9.343-15.431-12.056a46.483,46.483,0,0,0-5.063-1.989c-3.858-1.145-7.6-1.025-11.513-1.025-3.617.06-7.354,2.893-10.127,5.063" transform="translate(-76.976 -69.6)" fill="#faf3dd"/>
      <path id="Path_553" data-name="Path 553" d="M530.652,180.429c-3.134-5.847-9.343-9.343-15.431-12.056a46.493,46.493,0,0,0-5.063-1.989,18.276,18.276,0,0,0-3.858-.784,48.3,48.3,0,0,1,4.883,1.929c6.088,2.713,12.3,6.209,15.431,12.056A16.271,16.271,0,0,1,528.12,191.1a15.037,15.037,0,0,1-6.751,9.343c-2.893,1.748-6.269,2.411-9.223,4.1-4.34,2.411-7.6,6.932-12.478,7.836a6.51,6.51,0,0,1-1.869.121,10.676,10.676,0,0,0,5.968.723c4.883-.9,8.138-5.365,12.478-7.836,2.954-1.628,6.329-2.351,9.223-4.1a15.038,15.038,0,0,0,6.751-9.343,16.958,16.958,0,0,0-1.567-11.513" transform="translate(-88.709 -69.881)" fill="#faf4dc"/>
      <path id="Path_554" data-name="Path 554" d="M478.911,187.158a10.329,10.329,0,0,0,.542,8.138,6.991,6.991,0,0,0,6.751,4.039,10.263,10.263,0,0,0,5.546-1.929,10.9,10.9,0,0,0,4.521-7.354,8.831,8.831,0,0,0-3.074-7.9c-4.762-3.8-12.357-.241-14.286,5" transform="translate(-80.972 -75.826)" fill="#f7d875"/>
      <path id="Path_555" data-name="Path 555" d="M494.9,182.445a7.7,7.7,0,0,0-2.049-1.145,9.005,9.005,0,0,1,2.592,7.475,10.894,10.894,0,0,1-4.521,7.354,9.8,9.8,0,0,1-5.546,1.929,8.855,8.855,0,0,1-2.773-.422,7.52,7.52,0,0,0,5.3,2.049,10.263,10.263,0,0,0,5.546-1.929,10.894,10.894,0,0,0,4.521-7.354,8.883,8.883,0,0,0-3.074-7.957" transform="translate(-82.672 -76.117)" fill="#f7d875"/>
      <g id="Group_352" data-name="Group 352" transform="translate(399.506 108.257)" opacity="0.39">
        <g id="Group_351" data-name="Group 351">
          <g id="Group_350" data-name="Group 350" clip-path="url(#clip-path)">
            <path id="Path_556" data-name="Path 556" d="M482.093,193.657a3.562,3.562,0,0,0,.964,1.748,1.666,1.666,0,0,0,1.869.241,2,2,0,0,0,.663-2.049c-.121-.784-.482-1.447-.6-2.23a3.451,3.451,0,0,1,.663-2.532,5.776,5.776,0,0,0,1.025-1.447.7.7,0,0,0,0-.6.963.963,0,0,0-.6-.3c-3.255-.422-4.641,4.7-3.978,7.173" transform="translate(-481.913 -186.424)" fill="#fff"/>
          </g>
        </g>
      </g>
      <g id="Group_355" data-name="Group 355" transform="translate(392.936 96.985)" opacity="0.47">
        <g id="Group_354" data-name="Group 354">
          <g id="Group_353" data-name="Group 353" clip-path="url(#clip-path-2)">
            <path id="Path_557" data-name="Path 557" d="M475.421,178.39a18.058,18.058,0,0,1,6.691-6.269,12.585,12.585,0,0,1,8.981-1.206,21.322,21.322,0,0,0,2.652.663,2.772,2.772,0,0,0,1.688-.241,1.468,1.468,0,0,0,.723-1.447,1.766,1.766,0,0,0-.784-.964,8.952,8.952,0,0,0-5.3-1.326,17.514,17.514,0,0,0-10.308,3.315,26.544,26.544,0,0,0-2.351,2.11l-3.677,3.5a10.816,10.816,0,0,0-1.386,1.507c-.422.6-1.989,3.8-.542,4.039,1.447.362,3.014-2.713,3.617-3.677" transform="translate(-471.081 -167.66)" fill="#fff"/>
          </g>
        </g>
      </g>
      <g id="Group_358" data-name="Group 358" transform="translate(392.394 114.466)" opacity="0.47">
        <g id="Group_357" data-name="Group 357">
          <g id="Group_356" data-name="Group 356" clip-path="url(#clip-path-3)">
            <path id="Path_558" data-name="Path 558" d="M470.092,198.026a5.377,5.377,0,0,0,.3,1.929c.542,1.748,1.085,3.556,1.627,5.3a14.991,14.991,0,0,0,1.085,2.713,3.989,3.989,0,0,0,2.11,1.869,2.494,2.494,0,0,0,2.652-.542,2.109,2.109,0,0,0,.3-2.351c-.543-1.085-1.808-1.447-2.893-1.989a7.144,7.144,0,0,1-3.617-6.751c.06-.542.121-1.507-.663-1.507-.543,0-.844.844-.9,1.326" transform="translate(-470.092 -196.7)" fill="#fff"/>
          </g>
        </g>
      </g>
      <path id="Path_559" data-name="Path 559" d="M452.217,171.488c.3-.723.663-1.447.964-2.11a1.027,1.027,0,0,0,0-.6.728.728,0,0,0-.422-.422.752.752,0,0,0-1.025.422c-.3.723-.663,1.447-.964,2.11a1.027,1.027,0,0,0,0,.6.728.728,0,0,0,.422.422.77.77,0,0,0,1.025-.422" transform="translate(-70.011 -70.947)" fill="#f6d9b4"/>
      <path id="Path_560" data-name="Path 560" d="M462.48,180.921c-.241-.663-.422-1.326-.663-1.929a.728.728,0,0,0-.422-.422,1.027,1.027,0,0,0-.6,0,.728.728,0,0,0-.422.422,1.028,1.028,0,0,0,0,.6c.241.663.422,1.326.663,1.929a.728.728,0,0,0,.422.422,1.027,1.027,0,0,0,.6,0,.728.728,0,0,0,.422-.422.545.545,0,0,0,0-.6" transform="translate(-73.824 -75.015)" fill="#f6d9b4"/>
      <path id="Path_561" data-name="Path 561" d="M461.047,170.18l.181-.181q-.09,0-.181.181a2.628,2.628,0,0,1,.663-.543c-.06.06-.121.06-.181.121a2.141,2.141,0,0,1,.542-.241.728.728,0,0,0,.422-.422,1.027,1.027,0,0,0,0-.6.728.728,0,0,0-.422-.422,1.027,1.027,0,0,0-.6,0,3.793,3.793,0,0,0-1.688,1.206.9.9,0,0,0-.181.6.719.719,0,0,0,.3.543,1.019,1.019,0,0,0,.6.181c.241-.181.422-.241.542-.422" transform="translate(-73.536 -70.844)" fill="#f6d9b4"/>
      <path id="Path_562" data-name="Path 562" d="M466.995,173.73l1.688-.723a.728.728,0,0,0,.422-.422,1.026,1.026,0,0,0,0-.6.8.8,0,0,0-1.025-.422l-1.688.723a.728.728,0,0,0-.422.422,1.027,1.027,0,0,0,0,.6.8.8,0,0,0,1.025.422" transform="translate(-76.048 -72.223)" fill="#f6d9b4"/>
      <path id="Path_563" data-name="Path 563" d="M466.223,160.3a3.794,3.794,0,0,0,2.17-.181.728.728,0,0,0,.422-.422,1.027,1.027,0,0,0,0-.6.728.728,0,0,0-.422-.422,1.027,1.027,0,0,0-.6,0c-.06,0-.181.06-.241.06.06,0,.121-.06.181-.06a4.072,4.072,0,0,1-.844.121h.181a2.472,2.472,0,0,1-.663-.06.792.792,0,0,0-.6.181.633.633,0,0,0-.3.543.792.792,0,0,0,.181.6,1.136,1.136,0,0,0,.543.241" transform="translate(-75.879 -67.11)" fill="#f6d9b4"/>
      <path id="Path_564" data-name="Path 564" d="M522.563,144.807l.9.181h.3c.121,0,.181-.06.3-.121.06-.06.181-.121.181-.241a.46.46,0,0,0,.121-.3v-.181a.43.43,0,0,0-.181-.362l-.121-.121-.362-.181-.9-.181h-.3c-.121,0-.181.06-.3.121-.06.06-.181.121-.181.241a.461.461,0,0,0-.121.3v.181a.43.43,0,0,0,.181.362l.121.121.362.181" transform="translate(-98.282 -61.023)" fill="#f6d9b4"/>
      <path id="Path_565" data-name="Path 565" d="M527.843,150.395c.723,1.266,1.326,2.592,1.929,3.918a.784.784,0,1,0,1.447-.6c-.6-1.326-1.266-2.652-1.929-3.918a.949.949,0,0,0-.422-.422,1.027,1.027,0,0,0-.6,0,.735.735,0,0,0-.422,1.025" transform="translate(-100.608 -63.416)" fill="#f6d9b4"/>
      <path id="Path_566" data-name="Path 566" d="M532.357,144.079c0-.06.06-.121.06-.181a.264.264,0,0,1-.06.181c.06-.06.121-.181.181-.241l-.121.121a1.058,1.058,0,0,1,.3-.241c-.06.06-.121.06-.181.121.06-.06.121-.06.241-.121a.831.831,0,0,0,.241-.181c.06-.06.121-.181.181-.241a.783.783,0,0,0,0-.6.728.728,0,0,0-.422-.422,1.027,1.027,0,0,0-.6,0,.972.972,0,0,0-.422.241c-.06.06-.181.121-.241.181a1.6,1.6,0,0,0-.3.362,1.511,1.511,0,0,0-.241.422,1.028,1.028,0,0,0,0,.6.834.834,0,0,0,.181.241c.06.06.181.121.241.181a1.028,1.028,0,0,0,.6,0,.848.848,0,0,0,.362-.422" transform="translate(-101.867 -60.596)" fill="#f6d9b4"/>
      <path id="Path_567" data-name="Path 567" d="M485.6,260.047c.362.3.723.542,1.145.844a1.018,1.018,0,0,0,.6.181c.121,0,.181-.06.3-.121a.833.833,0,0,0,.241-.181,1.018,1.018,0,0,0,.181-.6.979.979,0,0,0-.3-.543c-.362-.3-.723-.542-1.145-.844a1.018,1.018,0,0,0-.6-.181c-.121,0-.181.06-.3.121a.834.834,0,0,0-.241.181,1.019,1.019,0,0,0-.181.6.812.812,0,0,0,.3.543" transform="translate(-83.744 -106.822)" fill="#f6d9b4"/>
      <path id="Path_568" data-name="Path 568" d="M491.495,267.51c.3-.121.663-.241.964-.362-.06,0-.121.06-.181.06.241-.06.543-.121.784-.181a.719.719,0,0,0,.542-.3,1.018,1.018,0,0,0,.181-.6.978.978,0,0,0-.3-.543,1.018,1.018,0,0,0-.6-.181,12.2,12.2,0,0,0-1.989.543.728.728,0,0,0-.422.422,1.028,1.028,0,0,0,0,.6.728.728,0,0,0,.422.422c.241.181.422.241.6.121" transform="translate(-85.78 -109.523)" fill="#f6d9b4"/>
      <path id="Path_569" data-name="Path 569" d="M502.155,265.251a6.084,6.084,0,0,0,.9-.422,2.677,2.677,0,0,0,.663-.482c.06-.06.181-.121.181-.241a.46.46,0,0,0,.121-.3,1.163,1.163,0,0,0-.181-.6.633.633,0,0,0-.543-.3.792.792,0,0,0-.6.181,6.409,6.409,0,0,1-.663.543c.06-.06.121-.06.181-.121a3.688,3.688,0,0,1-.723.3.728.728,0,0,0-.422.422,1.028,1.028,0,0,0,0,.6.728.728,0,0,0,.422.422c.06,0,.121.06.181.06a1.037,1.037,0,0,0,.482-.06" transform="translate(-89.99 -108.53)" fill="#f6d9b4"/>
      <path id="Path_570" data-name="Path 570" d="M530.366,242.906a8.014,8.014,0,0,1,1.145-.844c-.06.06-.121.06-.181.121.3-.181.6-.3.964-.482a.824.824,0,0,0,.422-1.025.752.752,0,0,0-1.025-.422,6.865,6.865,0,0,0-2.29,1.386.811.811,0,0,0-.3.543.792.792,0,0,0,.181.6.769.769,0,0,0,1.085.121" transform="translate(-101.142 -99.506)" fill="#f6d9b4"/>
      <path id="Path_571" data-name="Path 571" d="M523.832,252.967a4.351,4.351,0,0,1,1.206.542c-.06-.06-.121-.06-.181-.12.06.06.121.06.181.12a.46.46,0,0,0,.3.121.273.273,0,0,0,.3,0c.121,0,.181-.06.3-.121a.832.832,0,0,0,.241-.181,1.019,1.019,0,0,0,.181-.6.979.979,0,0,0-.3-.543,7.4,7.4,0,0,0-1.567-.723.784.784,0,0,0-.6,0,.728.728,0,0,0-.422.422,1.027,1.027,0,0,0,0,.6.525.525,0,0,0,.362.482" transform="translate(-98.888 -103.962)" fill="#f6d9b4"/>
      <path id="Path_572" data-name="Path 572" d="M520.463,259.667c.362.06.723.181,1.025.241h.3c.121,0,.181-.06.3-.121.06-.06.181-.121.181-.241a.461.461,0,0,0,.121-.3.792.792,0,0,0-.181-.6l-.12-.121-.362-.181c-.362-.06-.723-.181-1.025-.241h-.3c-.121,0-.181.06-.3.121-.06.06-.181.121-.181.241a.46.46,0,0,0-.121.3.792.792,0,0,0,.181.6l.12.121.362.181" transform="translate(-97.448 -106.623)" fill="#f6d9b4"/>
      <path id="Path_573" data-name="Path 573" d="M541.095,249.751a30.765,30.765,0,0,0,3.014-1.145.824.824,0,0,0,.422-1.025.8.8,0,0,0-1.025-.422c-.964.422-1.989.784-3.014,1.145a.728.728,0,0,0-.422.422,1.028,1.028,0,0,0,0,.6.752.752,0,0,0,1.025.422" transform="translate(-105.482 -102.253)" fill="#f6d9b4"/>
      <path id="Path_574" data-name="Path 574" d="M533.447,248.493c.362-.543.784-1.025,1.145-1.567a1.018,1.018,0,0,0,.181-.6.719.719,0,0,0-.3-.543,1.018,1.018,0,0,0-.6-.181.979.979,0,0,0-.543.3c-.422.542-.784,1.025-1.145,1.567a1.018,1.018,0,0,0-.181.6.719.719,0,0,0,.3.542,1.019,1.019,0,0,0,.6.181,1.58,1.58,0,0,0,.542-.3" transform="translate(-102.294 -101.658)" fill="#f6d9b4"/>
      <path id="Path_575" data-name="Path 575" d="M539.863,240.467a5.181,5.181,0,0,1,.964.06h.3c.121,0,.181-.06.3-.121.06-.06.181-.121.181-.241a.461.461,0,0,0,.121-.3.792.792,0,0,0-.181-.6l-.121-.121-.362-.181a5.184,5.184,0,0,1-.964-.06h-.3c-.121,0-.181.06-.3.121-.06.06-.181.121-.181.241a.461.461,0,0,0-.12.3.792.792,0,0,0,.181.6l.121.121a.364.364,0,0,0,.362.181" transform="translate(-105.154 -98.996)" fill="#f6d9b4"/>
      <path id="Path_576" data-name="Path 576" d="M555.9,243.208l1.266-.181a.719.719,0,0,0,.542-.3,1.018,1.018,0,0,0,.181-.6.979.979,0,0,0-.3-.543,1.019,1.019,0,0,0-.6-.181l-1.266.181a.719.719,0,0,0-.542.3,1.018,1.018,0,0,0-.181.6.979.979,0,0,0,.3.543,1.019,1.019,0,0,0,.6.181" transform="translate(-111.43 -99.989)" fill="#f6d9b4"/>
      <path id="Path_577" data-name="Path 577" d="M566.567,240.992a2.563,2.563,0,0,1,.121-.663c0,.06-.06.121-.06.181a2.229,2.229,0,0,1,.3-.663c-.06.06-.06.121-.121.181.06-.121.121-.181.181-.3a1.018,1.018,0,0,0,.181-.6.719.719,0,0,0-.3-.543,1.018,1.018,0,0,0-.6-.181.978.978,0,0,0-.542.3,4.806,4.806,0,0,0-.482.964,6.3,6.3,0,0,0-.241,1.025v.3c0,.121.06.181.121.3a.633.633,0,0,0,.543.3.792.792,0,0,0,.6-.181c.181,0,.3-.181.3-.422" transform="translate(-115.402 -98.798)" fill="#f6d9b4"/>
      <path id="Path_578" data-name="Path 578" d="M521.51,207.378a7.527,7.527,0,0,0,.844-4.521c-.362-1.447-1.507-2.592-1.567-4.039a.978.978,0,0,1,.964.663,1.979,1.979,0,0,1,.06-1.025.778.778,0,0,1,.784-.543c.362.06.542.543.3.723.241-.121.422-.181.663-.3a21.442,21.442,0,0,0,.3,2.833,4.152,4.152,0,0,0,.723-2.532,4.486,4.486,0,0,1,.121-1.567,1.153,1.153,0,0,1,1.206-.784c.482.121.663,1.025.181,1.145a2.744,2.744,0,0,1,1.145-.482,1.386,1.386,0,0,1-.121.844c.422-.181,1.025-.362,1.266,0,.3.482-.3.964-.784,1.206a4.647,4.647,0,0,0-1.869,1.869c.241.3.723,0,1.025-.241a3.485,3.485,0,0,1,3.135-.663.8.8,0,0,1-.784.784c.241-.06.482-.06.723-.121a.509.509,0,0,1-.241.723,1.32,1.32,0,0,1,1.386,1.567c-.3.9-1.567.964-2.532.844-1.386-.181-2.954-.3-4.1.543a4.563,4.563,0,0,0-1.085,1.326c-1.386,2.17-2.05,4.521-3.074,6.872-.663-1.507.723-3.677,1.326-5.124" transform="translate(-97.531 -82.061)" fill="#f9f0d7"/>
      <path id="Path_579" data-name="Path 579" d="M658.31,388.605A31.405,31.405,0,1,1,626.905,357.2a31.385,31.385,0,0,1,31.405,31.405" transform="translate(-127.517 -145.987)" fill="#aadde5"/>
      <path id="Path_580" data-name="Path 580" d="M652.039,367.2l-.121.241c-.121.181-.241.422-.422.723a16.693,16.693,0,0,1-1.989,2.532,17.239,17.239,0,0,1-9.162,5,18.808,18.808,0,0,1-5.787.121,20.723,20.723,0,0,1-4.581-1.326,17.337,17.337,0,0,1-2.773-1.567,3.526,3.526,0,0,1-.663-.542,1.783,1.783,0,0,1-.241-.181,1.041,1.041,0,0,1,.241.181,4.91,4.91,0,0,0,.723.482,17.927,17.927,0,0,0,2.773,1.507,16.829,16.829,0,0,0,4.521,1.266,18.392,18.392,0,0,0,5.727-.121,17.754,17.754,0,0,0,5.365-2.049,19.6,19.6,0,0,0,3.737-2.893,15.029,15.029,0,0,0,2.049-2.471,7.4,7.4,0,0,0,.482-.723.743.743,0,0,1,.121-.181" transform="translate(-139.751 -149.959)" fill="#1b2a2c"/>
      <path id="Path_581" data-name="Path 581" d="M661.369,381.4a.187.187,0,0,1-.06.121c-.06.06-.121.181-.241.3-.181.241-.482.663-.9,1.206a24.583,24.583,0,0,1-3.8,3.858c-.422.362-.9.723-1.386,1.145-.482.362-1.025.723-1.567,1.145a35.9,35.9,0,0,1-3.737,2.11,38.283,38.283,0,0,1-4.461,1.688,31.973,31.973,0,0,1-5,.965,29.06,29.06,0,0,1-9.825-.663,32.917,32.917,0,0,1-4.1-1.266c-.6-.241-1.206-.482-1.808-.784-.542-.3-1.085-.542-1.628-.784a29.007,29.007,0,0,1-4.521-3.014,9.866,9.866,0,0,1-1.085-.964,1.059,1.059,0,0,0-.3-.241c-.06-.06-.121-.121-.06-.121a.187.187,0,0,1,.121.06c.06.06.181.121.3.241.241.181.6.543,1.145.964a30.971,30.971,0,0,0,4.521,2.954,10.212,10.212,0,0,0,1.628.784q.814.362,1.808.723a32.927,32.927,0,0,0,4.1,1.266,30.106,30.106,0,0,0,9.7.6,31.2,31.2,0,0,0,4.943-.964,29,29,0,0,0,4.4-1.628,27.34,27.34,0,0,0,3.737-2.049c.543-.362,1.085-.723,1.567-1.085s.964-.723,1.386-1.085a27.688,27.688,0,0,0,3.8-3.8c.422-.482.723-.9.9-1.145.121-.121.181-.241.241-.3a1.773,1.773,0,0,1,.181-.241" transform="translate(-136.001 -155.599)" fill="#1b2a2c"/>
      <path id="Path_582" data-name="Path 582" d="M660.415,399a.467.467,0,0,1-.06.181,2.71,2.71,0,0,1-.121.482,9.64,9.64,0,0,1-.663,1.748,17.039,17.039,0,0,1-1.507,2.471,19.183,19.183,0,0,1-2.713,2.713,34.933,34.933,0,0,1-8.62,5,43.953,43.953,0,0,1-11.875,3.014,40.879,40.879,0,0,1-12.237-.482,38.186,38.186,0,0,1-5.184-1.326,43.647,43.647,0,0,1-4.34-1.688,42.922,42.922,0,0,1-5.907-3.255c-.663-.422-1.145-.784-1.507-1.025a2.3,2.3,0,0,1-.362-.3l-.12-.121a.187.187,0,0,1,.12.06,2.619,2.619,0,0,0,.422.241c.362.241.844.6,1.507,1.025a43.788,43.788,0,0,0,5.907,3.195c1.326.542,2.773,1.145,4.34,1.627a38.391,38.391,0,0,0,5.184,1.266,42.441,42.441,0,0,0,12.176.482,44.094,44.094,0,0,0,11.815-3.014,34.9,34.9,0,0,0,8.62-4.943A19.178,19.178,0,0,0,658,403.641a15.9,15.9,0,0,0,1.567-2.411,11.547,11.547,0,0,0,.663-1.688,1.862,1.862,0,0,0,.121-.482l.06-.06" transform="translate(-131.37 -162.59)" fill="#1b2a2c"/>
      <path id="Path_583" data-name="Path 583" d="M659.891,418s0,.06-.121.121c-.06.121-.181.241-.3.422s-.3.422-.482.663-.422.6-.663.9a46.022,46.022,0,0,1-4.822,5.3c-1.085,1.025-2.411,2.05-3.8,3.135-.362.241-.723.482-1.145.784-.362.241-.784.543-1.145.784-.422.241-.844.482-1.206.723-.422.241-.844.482-1.326.723a39.92,39.92,0,0,1-12.3,4.1,36.3,36.3,0,0,1-6.691.422,35.042,35.042,0,0,1-6.269-.663c-.482-.121-.964-.181-1.447-.3s-.964-.241-1.386-.362c-.241-.06-.482-.121-.663-.181-.241-.06-.422-.121-.663-.181-.422-.121-.844-.241-1.326-.422-.422-.121-.844-.3-1.206-.422-.422-.181-.784-.3-1.206-.482a18.088,18.088,0,0,1-2.17-.964c-.663-.362-1.326-.663-1.929-.964-.6-.362-1.145-.6-1.688-.965-.482-.3-.964-.6-1.386-.9s-.784-.543-1.145-.784-.663-.482-.9-.663a6.4,6.4,0,0,1-.663-.543c-.181-.121-.3-.241-.422-.3l-.121-.121.121.121c.121.06.241.181.422.3s.422.3.663.482.543.422.9.663a41.015,41.015,0,0,0,6.148,3.556c.663.362,1.386.6,2.17.964a7.09,7.09,0,0,0,1.206.422c.422.121.784.3,1.206.422a10.392,10.392,0,0,1,1.266.422c.241.06.422.121.663.181s.482.121.663.181c.482.121.9.241,1.386.362s.964.181,1.447.3a34.42,34.42,0,0,0,6.209.6,42.452,42.452,0,0,0,6.691-.422,39.546,39.546,0,0,0,12.237-4.1c.422-.241.844-.482,1.326-.723.422-.241.844-.482,1.206-.723a7.677,7.677,0,0,0,1.145-.784c.362-.241.723-.482,1.145-.784a43.164,43.164,0,0,0,3.858-3.074,39.091,39.091,0,0,0,4.883-5.244,8.625,8.625,0,0,0,.663-.9c.181-.241.362-.482.482-.663s.241-.3.3-.422c.181.06.181,0,.181,0" transform="translate(-129.821 -170.137)" fill="#1b2a2c"/>
      <g id="Group_361" data-name="Group 361" transform="translate(467.682 214.709)" opacity="0.4">
        <g id="Group_360" data-name="Group 360">
          <g id="Group_359" data-name="Group 359" clip-path="url(#clip-path-4)">
            <path id="Path_584" data-name="Path 584" d="M595.443,395.571a12.605,12.605,0,0,0,14.828-6.631c2.11-4.641,1.326-10.488,4.641-14.346,3.014-3.5,8.2-3.978,12.779-3.737s9.464.9,13.563-1.145c1.869-.9,3.617-3.014,2.713-4.943-.784-1.628-3.014-1.869-4.822-1.869-3.617,0-7.294.06-10.91.181-4.822.121-9.825.362-13.924,2.893-3.617,2.291-5.907,6.088-8.077,9.765-3.8,6.329-7.535,12.719-11.332,19.048.422-.06.784-.181,1.206-.241" transform="translate(-594.96 -362.96)" fill="#1b2a2c"/>
          </g>
        </g>
      </g>
      <path id="Path_585" data-name="Path 585" d="M612.681,340.5a12.024,12.024,0,0,0-2.652.9,35.81,35.81,0,0,0-6.932,3.556,120.342,120.342,0,0,0-12.3,11.513l16.4,11.935,4.461-7.233,13.382-4.1-5.244-15.25Z" transform="translate(-125.65 -139.353)" fill="#f7adab"/>
      <path id="Path_586" data-name="Path 586" d="M605.436,353.59c.06.06-.12.241-.362.422s-.482.3-.482.241c-.06-.06.121-.241.362-.422s.482-.3.482-.241" transform="translate(-131.124 -144.546)" fill="#eaada3"/>
      <path id="Path_587" data-name="Path 587" d="M616.485,348.9c0,.06-.3.121-.784.362s-1.085.663-1.808,1.085a3.5,3.5,0,0,1-2.05.482,1.743,1.743,0,0,1-.844-.3c0-.06.3.121.844.181a3.628,3.628,0,0,0,1.929-.542c.723-.362,1.326-.784,1.808-1.025a2.233,2.233,0,0,1,.9-.241" transform="translate(-133.674 -142.69)" fill="#eaada3"/>
      <path id="Path_588" data-name="Path 588" d="M610.408,355a13.932,13.932,0,0,1-.543,2.411c-.06.362-.181.663-.241.964a2.03,2.03,0,0,1-.362.723.938.938,0,0,1-.663.362c0-.06.3-.06.543-.422a6.376,6.376,0,0,0,.543-1.628,11.862,11.862,0,0,1,.723-2.411" transform="translate(-132.721 -145.113)" fill="#eaada3"/>
      <path id="Path_589" data-name="Path 589" d="M501.02,368.066c-.482,1.447-13.02,49.006-13.02,49.006l4.219,1.869,6.028-2.411,7.233-15.733,8.982-18.506,30.5,9.584,3.255-22.966-35.866-6.51Z" transform="translate(-84.817 -148.052)" fill="#f7adab"/>
      <path id="Path_590" data-name="Path 590" d="M511.814,413.109s-3.255-47.741-3.315-50.574c-.121-3.255,4.039-7.535,8.56-7.535,5.485,0,16.094,2.17,24.955,5.425,6.45,2.351,14.406,4.883,14.406,4.883l5.3-6.51,15.552,10.368s-1.145,1.808-3.135,5.546c-2.954,5.546-6.51,13.985-8.379,15.07-2.773,1.628-7.957,2.23-16.456-1.929-2.17-1.085-5.184-2.411-6.872-3.134a62.226,62.226,0,0,1-18.686-12.176,69.672,69.672,0,0,1,.3,11.815c-.422,5.907-2.17,23.268-2.17,28.753a13.817,13.817,0,0,1-10.067,0" transform="translate(-92.958 -145.113)" fill="#f7adab"/>
      <path id="Path_591" data-name="Path 591" d="M531.877,382.5a18.011,18.011,0,0,0-1.748-2.713,19.158,19.158,0,0,0-2.23-2.291s.3.181.784.542a13.719,13.719,0,0,1,1.628,1.628,13.336,13.336,0,0,1,1.206,1.929c.3.542.422.9.362.9" transform="translate(-100.664 -154.05)" fill="#eaada3"/>
      <path id="Path_592" data-name="Path 592" d="M551.022,396.276a.187.187,0,0,1-.121-.06c-.06-.06-.181-.06-.241-.121-.241-.121-.6-.3-1.025-.482-.9-.422-2.17-1.145-3.737-2.049a88.381,88.381,0,0,1-11.332-8.2c-.3-.241-.6-.543-.9-.784l.181-.121.06.482c0,.181.06.3.06.482a5.188,5.188,0,0,1,.06.964c0,.6.06,1.266.06,1.869,0,1.206,0,2.411-.06,3.5-.06,2.23-.181,4.22-.241,5.907-.121,1.688-.181,3.014-.3,3.918-.06.482-.06.844-.121,1.085a.544.544,0,0,1-.06.3v-.3c0-.241.06-.6.06-1.085.06-.9.181-2.291.241-3.978s.181-3.677.241-5.907c0-1.085.06-2.291.06-3.5,0-.6,0-1.206-.06-1.869a5.52,5.52,0,0,0-.06-.964,1.326,1.326,0,0,0-.06-.482l-.06-.482-.06-.3.241.181c.3.241.6.543.9.784a85.409,85.409,0,0,0,11.272,8.258c1.507.9,2.773,1.628,3.677,2.11.422.241.784.422,1.025.543.121.06.181.121.241.121l.06.181" transform="translate(-102.811 -156.672)" fill="#eaada3"/>
      <path id="Path_593" data-name="Path 593" d="M511.554,414.691a45.778,45.778,0,0,0-.362-6.691c-.362-4.159-.784-9.825-1.326-16.155-.482-6.329-.9-12-1.085-16.155-.121-2.049-.181-3.737-.181-4.883v-1.326c0,.3.06.784.06,1.326.06,1.145.121,2.833.241,4.883.241,4.159.663,9.825,1.145,16.155.482,6.269.964,12,1.266,16.155.362,4.159.482,6.751.241,6.691" transform="translate(-93 -150.674)" fill="#eaada3"/>
      <path id="Path_594" data-name="Path 594" d="M480.873,449.921v.663s-11.453,4.521-11.573,6.691l22.665.06-.3-7.535a13.17,13.17,0,0,1-10.79.121" transform="translate(-77.389 -182.769)" fill="#1b2a2c"/>
      <path id="Path_595" data-name="Path 595" d="M491.958,461.108l-.06-1.808-21.7.6s-1.025.422-.9,1.145Z" transform="translate(-77.382 -186.542)" fill="#f7d0c4"/>
      <path id="Path_596" data-name="Path 596" d="M488.3,451.145c0,.121.543.181,1.085.542s.844.844.964.784c.121,0-.06-.663-.723-1.085a1.313,1.313,0,0,0-1.326-.241" transform="translate(-84.936 -183.27)" fill="#f7d0c4"/>
      <path id="Path_597" data-name="Path 597" d="M484.4,452.866c0,.121.482.3.844.784s.482.964.6.964.181-.6-.3-1.206-1.145-.663-1.145-.543" transform="translate(-83.387 -183.966)" fill="#f7d0c4"/>
      <path id="Path_598" data-name="Path 598" d="M481.539,456.323c.121,0,.241-.542,0-1.145-.3-.6-.784-.844-.844-.784-.06.121.3.422.482.9.241.542.241,1.025.362,1.025" transform="translate(-81.913 -184.59)" fill="#f7d0c4"/>
      <path id="Path_599" data-name="Path 599" d="M486.535,449.233v-.543a3.083,3.083,0,0,1,.6-1.447c.121-.121.241-.3.362-.422a3.345,3.345,0,0,1,.482-.362.544.544,0,0,1,.3-.06.857.857,0,0,1,.362.121.77.77,0,0,1,.121.723,4.928,4.928,0,0,1-.723,1.206,2.517,2.517,0,0,1-1.266.784,1.2,1.2,0,0,1-.784-.121,6.567,6.567,0,0,1-.663-.362,3.156,3.156,0,0,1-1.025-.965.883.883,0,0,1-.121-.663.6.6,0,0,1,.241-.3.764.764,0,0,1,.362-.06.811.811,0,0,1,.543.3l.362.362a4.313,4.313,0,0,1,.844,1.326,2.934,2.934,0,0,0,.181.422l.06.121a2.872,2.872,0,0,1-.241-.482,8.707,8.707,0,0,0-.9-1.266,1.69,1.69,0,0,0-.844-.6c-.181,0-.362.06-.362.241a.615.615,0,0,0,.121.542,5.2,5.2,0,0,0,1.025.9,1.7,1.7,0,0,0,1.266.422,2.5,2.5,0,0,0,1.206-.723,5.666,5.666,0,0,0,.723-1.085.566.566,0,0,0-.06-.542.365.365,0,0,0-.482,0,1.082,1.082,0,0,0-.422.3l-.362.362a4.017,4.017,0,0,0-.663,1.386.894.894,0,0,0-.241.482" transform="translate(-83.292 -181.418)" fill="#f7d0c4"/>
      <path id="Path_600" data-name="Path 600" d="M498.54,454.786c0,.06-1.025.422-2.17.964-.3.121-.542.3-.844.422a1.856,1.856,0,0,1-.784.181c-.241-.06-.422-.121-.482-.241a.466.466,0,0,1-.06-.181.693.693,0,0,0,.542.3,1.572,1.572,0,0,0,.663-.181c.241-.121.543-.3.844-.422a8.978,8.978,0,0,1,1.567-.6c.422-.241.663-.3.723-.241" transform="translate(-87.279 -184.741)" fill="#f7d0c4"/>
      <path id="Path_601" data-name="Path 601" d="M732.957,338.448c.241-1.628-.663-3.195-.844-4.822-.181-2.11.964-4.039,1.447-6.088a11.084,11.084,0,0,0-2.954-10.488A10.044,10.044,0,0,1,728.2,314.4c-.6-1.326-.3-2.773-.241-4.22a15.12,15.12,0,0,0-.844-5.907,5.329,5.329,0,0,0-2.17-3.014,3.3,3.3,0,0,0-3.858.6l-.362,2.11a4.646,4.646,0,0,1,1.929,4.461,15.322,15.322,0,0,1-1.688,4.822,12.564,12.564,0,0,0-1.567,4.883c-.121,2.471,1.145,4.7,2.351,6.872s2.351,4.521,2.049,6.932c-.181,1.688-1.085,3.195-1.085,4.883,0,1.989,1.266,3.737,2.532,5.3a3.289,3.289,0,0,0,1.869,1.386,3.531,3.531,0,0,0,2.652-1.025c1.386-1.085,2.954-2.351,3.195-4.039" transform="translate(-176.727 -123.618)" fill="#1b2a2c"/>
      <path id="Path_602" data-name="Path 602" d="M723.415,304.8a3.937,3.937,0,0,0-.482-1.025,5.893,5.893,0,0,1-.543-1.748,4.468,4.468,0,0,0-.723-1.628,1.593,1.593,0,0,0-1.628-.542,1.036,1.036,0,0,0-.543,1.507l.784,3.134a1.545,1.545,0,0,0,.362,1.507,1.878,1.878,0,0,0,1.507.422,1.65,1.65,0,0,0,1.266-1.628" transform="translate(-176.708 -123.187)" fill="#f7adab"/>
      <path id="Path_603" data-name="Path 603" d="M707.977,297.567c1.326,2.411,2.652,6.631,1.447,9.042-1.206,2.471-3.8,4.34-5.726,6.269a18.528,18.528,0,0,1-3.918,3.135c-.784.482-2.11.362-3.014.723a1.893,1.893,0,0,1-2.291-.3,3.422,3.422,0,0,1-.6-2.05c-.543-6.39-1.386-12.176-2.471-18.506a7.033,7.033,0,0,1,3.376-3.255c-.06-.06,8.5-3.436,13.2,4.943" transform="translate(-165.61 -120.049)" fill="#1b2a2c"/>
      <path id="Path_604" data-name="Path 604" d="M695.285,308.1l1.326-1.266-6.269-9.4c-2.17-2.713-7.173-2.954-9.825-.723a63.524,63.524,0,0,0-8.077,8.017c-3.436,4.641-.9,8.318-.9,8.318L664,320.7l8.74,9.162Z" transform="translate(-154.727 -121.358)" fill="#f7adab"/>
      <path id="Path_605" data-name="Path 605" d="M688.346,304.369a.746.746,0,0,0-.06,1.025.694.694,0,0,0,1.025.06.746.746,0,0,0,.06-1.025.7.7,0,0,0-1.025-.06" transform="translate(-164.304 -124.923)" fill="#1b2a2c"/>
      <path id="Path_606" data-name="Path 606" d="M690.2,300.874c0,.121.663.362,1.145,1.085.482.663.543,1.447.663,1.447.06,0,.12-.181.12-.482a2.235,2.235,0,0,0-.422-1.206,2.337,2.337,0,0,0-1.025-.784c-.3-.121-.482-.121-.482-.06" transform="translate(-165.133 -123.598)" fill="#1b2a2c"/>
      <path id="Path_607" data-name="Path 607" d="M697.446,313.6a.746.746,0,0,0-.06,1.025.694.694,0,0,0,1.025.06.746.746,0,0,0,.06-1.025.815.815,0,0,0-1.025-.06" transform="translate(-167.918 -128.607)" fill="#1b2a2c"/>
      <path id="Path_608" data-name="Path 608" d="M699.1,311.121c0,.121.723.181,1.447.723.663.482.964,1.206,1.085,1.206q.09,0,0-.543a2.338,2.338,0,0,0-.784-1.025,3.13,3.13,0,0,0-1.206-.482c-.362,0-.543.06-.543.121" transform="translate(-168.668 -127.636)" fill="#1b2a2c"/>
      <path id="Path_609" data-name="Path 609" d="M687.776,311.938a5.172,5.172,0,0,0-.723-1.085c-.121-.181-.241-.3-.181-.422a.919.919,0,0,1,.543-.3c.482-.181.964-.422,1.507-.663a21.667,21.667,0,0,0,3.8-1.869,28.181,28.181,0,0,0-3.978,1.567c-.543.241-1.025.482-1.507.663a1.264,1.264,0,0,0-.663.482.514.514,0,0,0,0,.422c.06.121.12.181.181.3a10.731,10.731,0,0,0,1.025.9" transform="translate(-163.674 -126.282)" fill="#1b2a2c"/>
      <path id="Path_610" data-name="Path 610" d="M675.964,324.8a14.806,14.806,0,0,0,6.992,4.159s-4.159,1.507-7.957-3.074Z" transform="translate(-159.096 -133.117)" fill="#eaada3"/>
      <path id="Path_611" data-name="Path 611" d="M686.541,317.394a1.463,1.463,0,0,1,1.266.542,1.232,1.232,0,0,1,.3.964.85.85,0,0,1-.6.723.994.994,0,0,1-.9-.543,3.569,3.569,0,0,1-.3-1.145v-.3a.221.221,0,0,1,.241-.241" transform="translate(-163.584 -130.172)" fill="#eaada3"/>
      <path id="Path_612" data-name="Path 612" d="M688.441,317.992c-.06-.121-.723.482-1.628.422-.964-.121-1.507-.844-1.628-.723-.06,0,0,.241.3.543a1.991,1.991,0,0,0,1.326.663,1.939,1.939,0,0,0,1.326-.362c.3-.3.362-.543.3-.543" transform="translate(-163.133 -130.288)" fill="#1b2a2c"/>
      <path id="Path_613" data-name="Path 613" d="M701.891,307.845c-.121.181.542.723,1.085,1.447.6.723.9,1.447,1.145,1.386.121,0,.181-.241.121-.6a2.682,2.682,0,0,0-.6-1.266,4.508,4.508,0,0,0-1.085-.9c-.362-.181-.6-.181-.663-.06" transform="translate(-169.771 -126.349)" fill="#1b2a2c"/>
      <path id="Path_614" data-name="Path 614" d="M693.7,298.226c-.06.241.482.482.964.964.482.422.784.964.964.9.121,0,.181-.241.121-.482a1.971,1.971,0,0,0-.543-.964,1.608,1.608,0,0,0-1.025-.482.409.409,0,0,0-.482.06" transform="translate(-166.521 -122.517)" fill="#1b2a2c"/>
      <path id="Path_615" data-name="Path 615" d="M703,324.9c.121.06,3.617,1.688,1.025,4.461s-4.883-.422-4.822-.482c.121-.121,3.8-3.978,3.8-3.978" transform="translate(-168.708 -133.157)" fill="#f7adab"/>
      <path id="Path_616" data-name="Path 616" d="M702.294,329.908a.467.467,0,0,0,.06.181,1.023,1.023,0,0,0,.362.362,1.6,1.6,0,0,0,1.567-.543,2.526,2.526,0,0,0,.542-.844.758.758,0,0,0,0-.723.318.318,0,0,0-.422-.121c-.121.06-.121.121-.181.121a.214.214,0,0,1,.12-.181.452.452,0,0,1,.3-.06.521.521,0,0,1,.362.181,1.168,1.168,0,0,1,.121.9,2.782,2.782,0,0,1-.543.9,1.741,1.741,0,0,1-1.808.543.646.646,0,0,1-.362-.482c-.181-.181-.12-.3-.12-.241" transform="translate(-169.934 -134.428)" fill="#eaada3"/>
      <path id="Path_617" data-name="Path 617" d="M692.4,295.607a17.443,17.443,0,0,1,4.822-.844c1.929.121.6,1.808,1.628,3.074.964,1.266,1.688,1.567,3.376,2.411s2.23.723,3.135,2.23,1.266,2.833-1.206,4.581c-2.351,1.688-3.255,2.291-4.4,3.858-1.025,1.447-.3,2.23.422,2.291.784.06,1.386.06,1.386.06l6.148-5.124,1.206-2.049-1.266-4.34-2.833-3.315-2.652-3.255-2.351-.9-4.762-.181Z" transform="translate(-166.007 -120.923)" fill="#1b2a2c"/>
      <path id="Path_618" data-name="Path 618" d="M693.221,318.4c.06,0,.06.121,0,.121-.06.06-.121,0-.121-.06a.21.21,0,0,1,.121-.06" transform="translate(-166.285 -130.575)" fill="#1b2a2c"/>
      <path id="Path_619" data-name="Path 619" d="M719.04,309.3a1.669,1.669,0,0,1-.362.663,4.116,4.116,0,0,1-1.447,1.085,3.456,3.456,0,0,1-1.808.3q-.723-.09-.723-.181c0-.06.3,0,.723,0a3.874,3.874,0,0,0,1.688-.362,4.7,4.7,0,0,0,1.447-1.025,3,3,0,0,0,.482-.482" transform="translate(-174.865 -126.96)" fill="#b5e1ea"/>
      <path id="Path_620" data-name="Path 620" d="M718.144,313.695a2.069,2.069,0,0,1-.482.723,3.081,3.081,0,0,1-1.929.964,3.7,3.7,0,0,1-2.11-.362,2.305,2.305,0,0,1-.723-.543s.3.181.784.422a3.4,3.4,0,0,0,1.989.3,3.892,3.892,0,0,0,1.808-.844c.482-.422.6-.723.663-.663" transform="translate(-174.15 -128.703)" fill="#b5e1ea"/>
      <path id="Path_621" data-name="Path 621" d="M710.939,297.069c0,.06-.422-.3-1.206-.663a6.155,6.155,0,0,0-6.209.6c-.663.482-1.025.9-1.025.844a1.336,1.336,0,0,1,.241-.3,8.6,8.6,0,0,1,.723-.663,6.015,6.015,0,0,1,6.329-.6,3.407,3.407,0,0,1,.844.542c.181.121.3.181.3.241" transform="translate(-170.019 -121.54)" fill="#b5e1ea"/>
      <path id="Path_622" data-name="Path 622" d="M712.045,300.984a7.126,7.126,0,0,0-1.206-.9,8.393,8.393,0,0,0-3.376-1.326,8.663,8.663,0,0,0-3.617.181c-.9.241-1.447.543-1.447.482a1.492,1.492,0,0,1,.362-.241,5.885,5.885,0,0,1,1.025-.422,8.653,8.653,0,0,1,3.677-.3A7.886,7.886,0,0,1,710.9,299.9c.362.3.663.543.844.723a1.706,1.706,0,0,1,.3.362" transform="translate(-169.979 -122.623)" fill="#b5e1ea"/>
      <path id="Path_623" data-name="Path 623" d="M665.341,348.273s4.7.663,6.148-.723,3.014-3.195,3.014-3.195,6.932-3.195,7.9-4.943c1.025-1.748,5.546-1.266,7.9-3.978,2.411-2.652,3.978-3.014,3.978-5.184,0-2.11.844-10.85.844-10.85l-7.113,1.386.181,2.23s-3.677,2.833-3.978,4.943l-8.921,3.315-11.152-4.762L660.7,327.9v5.425l.482,6.088.121,4.159Z" transform="translate(-153.416 -130.972)" fill="#f7adab"/>
      <path id="Path_624" data-name="Path 624" d="M701.333,319.429l-3.858,1.085-1.748-.543s-.542,1.567-1.085,1.326a1.18,1.18,0,0,1-.784-1.567c.3-1.206.6-1.869,1.869-2.11a8.941,8.941,0,0,1,2.411,0s2.291-2.773,3.315-2.833,2.11,0,2.11,0,1.025-1.688,1.869-1.688,2.773,0,2.833,1.085,0,2.652,0,2.652l-7.113,1.386.06.844" transform="translate(-166.561 -128.47)" fill="#f7adab"/>
      <path id="Path_625" data-name="Path 625" d="M708.277,316.877v-.663c0-.422,0-1.025-.06-1.748a.9.9,0,0,0-.121-.543.95.95,0,0,0-.422-.422,3.349,3.349,0,0,0-1.386-.3H705.5a1.253,1.253,0,0,0-.723.3,5.216,5.216,0,0,0-1.145,1.386v.06h-.06a12.553,12.553,0,0,0-1.507,0h-.542a.221.221,0,0,0-.181.06,2.336,2.336,0,0,0-.663.362,18.216,18.216,0,0,0-2.411,2.411l-.06.06h-.06a7.116,7.116,0,0,0-2.532.06,1.56,1.56,0,0,0-1.025.542,3.35,3.35,0,0,0-.542,1.025,2.243,2.243,0,0,0-.121,1.085,1.138,1.138,0,0,0,.6.784c.3.241.542-.121.723-.362.181-.3.3-.6.422-.844v-.06h.06c.6.181,1.206.362,1.748.543h-.06c1.206-.3,2.17-.543,2.833-.723a7.85,7.85,0,0,0,.784-.181.951.951,0,0,1,.241-.06.66.66,0,0,1-.241.121c-.181.06-.422.121-.784.241-.663.181-1.628.482-2.833.784h0c-.542-.181-1.085-.3-1.748-.543l.12-.06a6.074,6.074,0,0,1-.422.9c-.12.121-.181.3-.362.422a.46.46,0,0,1-.3.121c-.121,0-.181-.06-.3-.06a1.134,1.134,0,0,1-.723-.9,4.1,4.1,0,0,1,.121-1.206,2.046,2.046,0,0,1,1.688-1.688,7.493,7.493,0,0,1,2.592-.06h0l-.121.06a18.212,18.212,0,0,1,2.411-2.411,4.494,4.494,0,0,1,.723-.422c.06,0,.12-.06.241-.06h.6a12.1,12.1,0,0,1,1.507.06l-.06.06a5.4,5.4,0,0,1,1.206-1.386,1.261,1.261,0,0,1,.362-.241,1.026,1.026,0,0,1,.422-.06h.784a3.655,3.655,0,0,1,1.447.362,1.834,1.834,0,0,1,.482.482c.121.181.06.422.121.6V317c.06-.181.06-.121.06-.121" transform="translate(-166.513 -128.509)" fill="#eaada3"/>
      <path id="Path_626" data-name="Path 626" d="M685.1,332.088a.264.264,0,0,1,.181-.06,4.139,4.139,0,0,1,.482-.181q.723-.271,1.808-.723c1.567-.6,3.677-1.386,6.028-2.291a.871.871,0,0,1,.422-.121l-.06.06a4.215,4.215,0,0,1,.784-1.748,8.248,8.248,0,0,1,1.145-1.326A26.954,26.954,0,0,1,698,323.77v.06c-.06-.663-.06-1.206-.121-1.628v-.6a2.139,2.139,0,0,1,.06.6q.09.633.181,1.628v.06h0a19.188,19.188,0,0,0-2.049,1.929c-.362.422-.723.844-1.085,1.326a3.892,3.892,0,0,0-.723,1.688v.06h-.06a.872.872,0,0,1-.422.121c-2.351.9-4.521,1.628-6.028,2.23-.784.241-1.386.482-1.869.663a4.156,4.156,0,0,0-.482.181h-.3" transform="translate(-163.107 -131.846)" fill="#eaada3"/>
      <path id="Path_627" data-name="Path 627" d="M698.317,319.3v.482c0,.3-.06.784-.12,1.386-.121,1.206-.241,2.893-.362,5-.06,1.085-.181,2.23-.181,3.436v.964a5.643,5.643,0,0,1-.241.964,6.547,6.547,0,0,1-1.326,1.567c-.542.482-1.025.964-1.567,1.447a9.6,9.6,0,0,1-.784.784,10.794,10.794,0,0,1-.844.784,12.526,12.526,0,0,1-4.34,1.808c-.542.181-1.085.3-1.627.543l-.362.181a1.264,1.264,0,0,0-.362.241l-.181.121c-.06.06-.06.121-.121.181l-.241.362a5.733,5.733,0,0,1-1.266,1.145c-.422.3-.9.6-1.326.9-1.808,1.085-3.617,1.989-5.244,2.773h0c-1.085,1.206-2.11,2.291-3.074,3.195a4.1,4.1,0,0,1-1.688.723,15.663,15.663,0,0,1-1.567.181c-.964,0-1.688-.06-2.17-.06-.241,0-.422-.06-.542-.06a.264.264,0,0,1-.181-.06h.181a1.86,1.86,0,0,1,.542.06,21.383,21.383,0,0,0,2.17.06,7.821,7.821,0,0,0,1.567-.181,3.579,3.579,0,0,0,1.628-.723,39.4,39.4,0,0,0,3.014-3.195h0c1.628-.784,3.376-1.688,5.184-2.773.422-.3.9-.542,1.326-.9a6.769,6.769,0,0,0,1.206-1.085l.241-.362c.06-.06.06-.121.121-.181l.181-.121a1.264,1.264,0,0,1,.362-.241l.362-.181a8.6,8.6,0,0,1,1.627-.543,12.318,12.318,0,0,0,4.28-1.748,9.632,9.632,0,0,0,1.567-1.567c.542-.542,1.085-1.025,1.567-1.447a6.111,6.111,0,0,0,1.326-1.507,2.528,2.528,0,0,0,.241-.9,5.513,5.513,0,0,1,.06-.964c.06-1.266.181-2.411.241-3.436.181-2.11.362-3.8.482-5,.06-.6.121-1.025.121-1.386,0-.121.06-.241.06-.362a1.694,1.694,0,0,0,.06-.3" transform="translate(-156.554 -130.932)" fill="#eaada3"/>
      <path id="Path_628" data-name="Path 628" d="M673.944,343.46a9.125,9.125,0,0,1-1.085.362,6.474,6.474,0,0,0-2.291,1.507,7.435,7.435,0,0,0-1.507,2.291,9.18,9.18,0,0,1-.362,1.085v-.3c0-.181.121-.482.181-.844a6.547,6.547,0,0,1,1.447-2.411,6.637,6.637,0,0,1,2.351-1.507c.362-.121.6-.181.844-.241a2.52,2.52,0,0,0,.422.06" transform="translate(-156.593 -140.505)" fill="#eaada3"/>
      <path id="Path_629" data-name="Path 629" d="M708.823,338.422a2.991,2.991,0,0,1-.362-.784,3.743,3.743,0,0,1-.121-2.049,3.011,3.011,0,0,1,1.145-1.688,1.665,1.665,0,0,1,.784-.3c0,.06-.3.121-.723.362a3.16,3.16,0,0,0-1.085,1.567,4.048,4.048,0,0,0,.06,1.929c.241.663.362.9.3.964" transform="translate(-172.304 -136.613)" fill="#eaada3"/>
      <path id="Path_630" data-name="Path 630" d="M682.448,338.5a3.131,3.131,0,0,1-.9.121c-.543.06-1.326.06-2.17.06a16.9,16.9,0,0,1-2.17-.241c-.543-.121-.9-.181-.9-.241s1.386.181,3.074.3c1.748.06,3.074-.06,3.074,0" transform="translate(-159.612 -138.433)" fill="#eaada3"/>
      <path id="Path_631" data-name="Path 631" d="M505.334,449.481v.663s-11.453,4.461-11.634,6.631l22.665.06-.3-7.535a12.361,12.361,0,0,1-10.73.181" transform="translate(-87.081 -182.57)" fill="#1b2a2c"/>
      <path id="Path_632" data-name="Path 632" d="M516.358,460.708l-.06-1.808-21.7.6s-1.025.422-.9,1.145Z" transform="translate(-87.074 -186.383)" fill="#f7d0c4"/>
      <path id="Path_633" data-name="Path 633" d="M512.8,450.829c0,.121.543.181,1.085.542s.844.844.964.784c.121,0-.06-.663-.723-1.085-.663-.482-1.326-.362-1.326-.241" transform="translate(-94.667 -183.135)" fill="#f7d0c4"/>
      <path id="Path_634" data-name="Path 634" d="M508.9,452.466c0,.121.482.3.844.784s.482.964.6.964.181-.6-.3-1.206c-.542-.6-1.145-.663-1.145-.543" transform="translate(-93.119 -183.808)" fill="#f7d0c4"/>
      <path id="Path_635" data-name="Path 635" d="M506.039,455.923c.121,0,.241-.543,0-1.145-.3-.6-.784-.844-.844-.784-.06.121.3.422.482.9.241.542.241,1.025.362,1.025" transform="translate(-91.645 -184.431)" fill="#f7d0c4"/>
      <path id="Path_636" data-name="Path 636" d="M511.035,448.933v-.542a3.082,3.082,0,0,1,.6-1.447c.121-.121.241-.3.362-.422a3.346,3.346,0,0,1,.482-.362.544.544,0,0,1,.3-.06.857.857,0,0,1,.362.121.77.77,0,0,1,.121.723,4.926,4.926,0,0,1-.723,1.206,2.517,2.517,0,0,1-1.266.784,1.205,1.205,0,0,1-.784-.121c-.241-.121-.422-.241-.663-.362a3.154,3.154,0,0,1-1.025-.964.883.883,0,0,1-.121-.663.6.6,0,0,1,.241-.3.764.764,0,0,1,.362-.06.812.812,0,0,1,.542.3l.362.362a4.312,4.312,0,0,1,.844,1.326,2.953,2.953,0,0,0,.181.422c0,.121.06.121.06.121a2.875,2.875,0,0,1-.241-.482,8.7,8.7,0,0,0-.9-1.266,1.691,1.691,0,0,0-.844-.6c-.181,0-.362.06-.362.241a.615.615,0,0,0,.121.542,5.2,5.2,0,0,0,1.025.9,1.7,1.7,0,0,0,1.266.422,2.5,2.5,0,0,0,1.206-.723,5.664,5.664,0,0,0,.723-1.085.566.566,0,0,0-.06-.543.365.365,0,0,0-.482,0,1.081,1.081,0,0,0-.422.3l-.362.362a4.014,4.014,0,0,0-.663,1.386.747.747,0,0,0-.241.482" transform="translate(-93.023 -181.299)" fill="#f7d0c4"/>
      <path id="Path_637" data-name="Path 637" d="M522.94,454.4c0,.06-1.025.362-2.17.9-.3.121-.543.3-.844.422a1.856,1.856,0,0,1-.784.181c-.241-.06-.422-.121-.482-.241a.466.466,0,0,1-.06-.181.693.693,0,0,0,.543.3,1.572,1.572,0,0,0,.663-.181c.241-.121.543-.3.844-.422a8.975,8.975,0,0,1,1.567-.6l.723-.181" transform="translate(-96.972 -184.596)" fill="#f7d0c4"/>
      <path id="Path_638" data-name="Path 638" d="M599.31,371.427,582.733,361.3c-1.507,1.567-3.436,3.8-5.546,6.088l-5.606-2.049L562.6,387.22s8.982,4.461,11.453,5.546c2.532,1.025,11.875,3.677,16.878-4.7l4.7-10.85Z" transform="translate(-114.449 -147.615)" fill="#a7accf"/>
    </g>
    <g id="Group_364" data-name="Group 364" transform="translate(450.984 230.804)" opacity="0.3">
      <g id="Group_363" data-name="Group 363">
        <g id="Group_362" data-name="Group 362" clip-path="url(#clip-path-5)">
          <path id="Path_639" data-name="Path 639" d="M572.248,395.4c-.3-.362-.9-.121-1.386-.121a1.433,1.433,0,0,1-1.447-1.266,2.516,2.516,0,0,1,.543-1.929,6.546,6.546,0,0,1,1.567-1.326,1.626,1.626,0,0,0,.482-.422.464.464,0,0,0-.06-.6.713.713,0,0,0-.6-.06,3.964,3.964,0,0,0-2.471,3.014,10.206,10.206,0,0,0,.3,4.039,1.758,1.758,0,0,1,.06.964.663.663,0,0,1-.784.422c-.422-.241-.422-1.025-.844-1.025-.3,0-.362.362-.422.663a7.667,7.667,0,0,0,.121,2.049l3.074,1.507a2.637,2.637,0,0,0,.422-2.411c-.181-.6-.6-1.326-.241-1.869.241-.362.723-.482,1.145-.723.482-.06.844-.6.543-.9" transform="translate(-567.245 -389.674)"/>
        </g>
      </g>
    </g>
    <g id="Group_367" data-name="Group 367" transform="translate(460.146 231.045)" opacity="0.3">
      <g id="Group_366" data-name="Group 366">
        <g id="Group_365" data-name="Group 365" clip-path="url(#clip-path-6)">
          <path id="Path_640" data-name="Path 640" d="M583.682,390.232a1.414,1.414,0,0,0-1.085,1.386,2.29,2.29,0,0,0,1.266.121,1.02,1.02,0,0,0,.784-.9c0-.422-.482-.844-.844-.663" transform="translate(-582.537 -390.111)"/>
        </g>
      </g>
    </g>
    <g id="Group_370" data-name="Group 370" transform="translate(459.905 236.53)" opacity="0.3">
      <g id="Group_369" data-name="Group 369">
        <g id="Group_368" data-name="Group 368" clip-path="url(#clip-path-7)">
          <path id="Path_641" data-name="Path 641" d="M590.4,408.873a1.862,1.862,0,0,1-.9-1.929,3.407,3.407,0,0,1,1.326-1.447,6.015,6.015,0,0,0,1.507-1.266,1.766,1.766,0,0,0,.181-1.869,8.983,8.983,0,0,0-.844-.723.93.93,0,0,1-.422-.964c.121-.362.482-.6.482-.964,0-.241-.241-.422-.482-.482a.907.907,0,0,0-.663.241,1.49,1.49,0,0,0-.362,1.748c.241.482.784.844,1.085,1.326s.241,1.266-.3,1.386c-.482.121-.9-.422-1.447-.482a1.113,1.113,0,0,0-.9.723c-.181.362-.181.784-.362,1.206a1.859,1.859,0,0,1-1.628,1.326,1.282,1.282,0,0,1-1.386-1.326,3.189,3.189,0,0,1,.784-1.386,2.531,2.531,0,0,0,.3-2.17,2.308,2.308,0,0,0-1.567-1.507,2.293,2.293,0,0,1-.9-.3c-.241-.241-.3-.663-.6-.844a.587.587,0,0,0-.784.543,1.046,1.046,0,0,0,.663.9,8.03,8.03,0,0,0,1.145.3,1.637,1.637,0,0,1,1.025.482,1.811,1.811,0,0,1-.422,2.291c-.543.663-1.266,1.206-1.447,2.049a2.161,2.161,0,0,0,.482,1.688,6.319,6.319,0,0,0,1.326,1.206,20.454,20.454,0,0,0,2.893.3,10.683,10.683,0,0,0,2.23-.06" transform="translate(-582.259 -399.168)"/>
        </g>
      </g>
    </g>
    <g id="Group_373" data-name="Group 373" transform="translate(462.316 216.035)" opacity="0.3">
      <g id="Group_372" data-name="Group 372">
        <g id="Group_371" data-name="Group 371" clip-path="url(#clip-path-8)">
          <path id="Path_642" data-name="Path 642" d="M589.32,369.44a1.376,1.376,0,0,1,.723-1.869c.362-.06.723.06,1.025-.121a1.033,1.033,0,0,0,.241-1.447,2.8,2.8,0,0,0-1.386-.9l-2.893,3.255a1.485,1.485,0,0,1,.784,1.808,6.288,6.288,0,0,1-1.145,1.929,1.966,1.966,0,0,0-.3,2.11c.6.9,2.23.723,2.652,1.688a1.69,1.69,0,0,1-.3,1.567,2.868,2.868,0,0,0-.542,1.507c0,.543.6,1.085,1.085.844a1.229,1.229,0,0,0,.482-.9c.121-.6.241-1.266.362-1.869a2.347,2.347,0,0,0-.121-1.808c-.482-.723-1.567-.784-2.17-1.386a1.551,1.551,0,0,1,.543-2.351,1.481,1.481,0,0,1,1.929,1.386c0,.241-.06.543.06.723a.467.467,0,0,0,.6.121.962.962,0,0,0,.422-.543,2.488,2.488,0,0,0-.723-2.049,4.6,4.6,0,0,1-1.326-1.688" transform="translate(-586.125 -365.16)"/>
        </g>
      </g>
    </g>
    <g id="Group_376" data-name="Group 376" transform="translate(471.358 219.532)" opacity="0.3">
      <g id="Group_375" data-name="Group 375">
        <g id="Group_374" data-name="Group 374" clip-path="url(#clip-path-9)">
          <path id="Path_643" data-name="Path 643" d="M610.008,377.45a2.685,2.685,0,0,0-1.085-1.085,1.857,1.857,0,0,1-.844-1.266c0-.422.181-.784.06-1.145-.06-.362-.422-.6-.542-.964a1.078,1.078,0,0,1,.3-1.085,1.114,1.114,0,0,1,1.145,0l-1.326-.9a1.851,1.851,0,0,0-1.447,2.291c.181.543.6,1.085.482,1.628a1.13,1.13,0,0,1-1.145.723,11.586,11.586,0,0,0-1.447,0,1.4,1.4,0,0,0-1.145.723c-.181.422.06,1.085.543,1.085.6.06,1.085-.723,1.688-.6.482.121.6.844.3,1.266a1.779,1.779,0,0,1-1.447.482,4.6,4.6,0,0,0-1.567.121,2.068,2.068,0,0,0-1.266,1.688,5.612,5.612,0,0,0,.181,2.23c.06.241.181.6.422.663.3.121.663-.181.723-.543a1.768,1.768,0,0,0-.241-.964,2,2,0,0,1-.3-.964.906.906,0,0,1,1.808,0c0,.422-.241.844-.181,1.266a.795.795,0,0,0,1.567,0c.121-.723-.723-1.386-.422-2.049.422-.784,1.929-.181,2.23-1.025.241-.663-.723-1.447-.362-1.989.241-.362.784-.241,1.085.06a9.826,9.826,0,0,1,.663,1.025c.241.3.6.663,1.025.6a.934.934,0,0,0,.543-1.266" transform="translate(-601.147 -371)"/>
        </g>
      </g>
    </g>
    <g id="Group_379" data-name="Group 379" transform="translate(471.358 233.637)" opacity="0.3">
      <g id="Group_378" data-name="Group 378">
        <g id="Group_377" data-name="Group 377" clip-path="url(#clip-path-10)">
          <path id="Path_644" data-name="Path 644" d="M607.425,394.448c-.663-.121-1.507-.181-1.869.422-.241.422-.121.965-.422,1.386s-.964.362-1.447.181a6.411,6.411,0,0,0-1.507-.542c-.543,0-1.085.482-.9,1.025.181.482.844.422,1.326.362s1.145-.06,1.326.422c.121.362-.181.784-.362,1.145s-.362.9.06,1.085c.482.241,1.025-.482,1.507-.241.3.181.3.6.3.964-.06.362,0,.844.3.964.362.121.663-.241.784-.6a1.828,1.828,0,0,0-.362-1.567,7.222,7.222,0,0,0-.723-.663,1.358,1.358,0,0,1-.482-.844.681.681,0,0,1,.543-.784c.241,0,.482.121.663,0a.612.612,0,0,0,.3-.6c0-.241-.121-.482-.06-.723a.774.774,0,0,1,.6-.6.726.726,0,0,1,.784.362.525.525,0,0,0,.241-.543c-.181-.422-.422-.6-.6-.6" transform="translate(-601.156 -394.388)"/>
        </g>
      </g>
    </g>
    <g id="Group_382" data-name="Group 382" transform="translate(454.902 218.266)" opacity="0.3">
      <g id="Group_381" data-name="Group 381">
        <g id="Group_380" data-name="Group 380" clip-path="url(#clip-path-11)">
          <path id="Path_645" data-name="Path 645" d="M577.634,372.276c-.06-.482-.3-.964-.422-1.507a1.463,1.463,0,0,1,.482-1.447l-1.567-.422c.06.784.181,1.628.241,2.411a2.3,2.3,0,0,1-.06.9c-.181.482-.784.723-1.266.964s-.964.723-.784,1.266c.181.663,1.266.784,1.326,1.447.06.543-.482.9-.964,1.145s-1.025.663-.844,1.206c.181.482.844.543,1.266.362a2.21,2.21,0,0,0,1.085-2.893c-.181-.362-.422-.6-.6-.964-.121-.362-.121-.844.241-1.025.362-.241.784,0,1.206-.121a1.252,1.252,0,0,0,.663-1.326" transform="translate(-573.777 -368.9)"/>
        </g>
      </g>
    </g>
    <g id="Group_385" data-name="Group 385" transform="translate(470.635 216.638)" opacity="0.3">
      <g id="Group_384" data-name="Group 384">
        <g id="Group_383" data-name="Group 383" clip-path="url(#clip-path-12)">
          <path id="Path_646" data-name="Path 646" d="M602.012,366.654a.859.859,0,0,0-1.025-.3l.181-.06c-.844.181-1.025.663-1.206,1.447a1.228,1.228,0,0,0,.3,1.266,1.085,1.085,0,0,0,1.326,0,2.019,2.019,0,0,0,.663-1.206,1.486,1.486,0,0,0-.241-1.145" transform="translate(-599.902 -366.232)"/>
        </g>
      </g>
    </g>
    <path id="Path_647" data-name="Path 647" d="M598.031,380.927a12.191,12.191,0,0,0-.723-2.17,11.276,11.276,0,0,0-3.5-4.159,24.354,24.354,0,0,0-4.762-2.773c-.6-.3-1.145-.543-1.507-.723s-.543-.241-.543-.3c0,0,.241.06.6.181s.9.362,1.567.663a26.455,26.455,0,0,1,4.822,2.773,11.535,11.535,0,0,1,3.5,4.28,10.159,10.159,0,0,1,.543,1.628,1.359,1.359,0,0,1,.06.422.467.467,0,0,0-.06.181" transform="translate(-124.141 -151.389)" fill="#1b2a2c"/>
    <path id="Path_648" data-name="Path 648" d="M605.33,374.142a5.555,5.555,0,0,0-.543-.3,8.724,8.724,0,0,1-1.386-.9c-1.206-.784-2.773-1.869-4.521-3.074-1.748-1.266-3.255-2.411-4.4-3.315-.543-.422-.964-.784-1.266-1.025s-.482-.422-.422-.422c0,0,.181.121.482.362.362.241.784.6,1.326,1.025,1.145.844,2.652,1.989,4.4,3.255s3.315,2.351,4.461,3.135c.543.362,1.025.723,1.386.964.3.181.482.3.482.3" transform="translate(-126.437 -149.125)" fill="#1b2a2c"/>
    <path id="Path_649" data-name="Path 649" d="M608.871,373a.466.466,0,0,1-.181-.06,4.151,4.151,0,0,0-.482-.181q-.633-.271-1.808-.723a46.227,46.227,0,0,1-5.666-2.893,59.119,59.119,0,0,1-5.244-3.556c-.663-.482-1.145-.9-1.507-1.206a1.023,1.023,0,0,1-.362-.362l-.121-.121s.06,0,.181.121c.12.06.241.181.422.3.362.3.844.663,1.507,1.145a60.3,60.3,0,0,0,5.244,3.5,56.741,56.741,0,0,0,5.606,2.893c.723.362,1.326.6,1.748.784a2.479,2.479,0,0,0,.482.181c.12.181.181.181.181.181" transform="translate(-126.723 -148.648)" fill="#1b2a2c"/>
    <path id="Path_650" data-name="Path 650" d="M599.4,377.1a.187.187,0,0,1-.06.121c-.06.06-.06.181-.121.3a7.23,7.23,0,0,1-.6,1.145c-.543,1.025-1.266,2.411-2.17,4.22-.482.9-.964,1.869-1.507,2.893s-1.085,2.17-1.748,3.315a14.263,14.263,0,0,1-2.532,3.315,9.533,9.533,0,0,1-1.748,1.326,9.078,9.078,0,0,1-2.11.844,11.263,11.263,0,0,1-4.461.3,20.829,20.829,0,0,1-4.039-.844,42.994,42.994,0,0,1-6.51-2.592,37.707,37.707,0,0,1-4.159-2.291q-.723-.452-1.085-.723c-.121-.06-.181-.121-.3-.181-.06-.06-.12-.06-.06-.06a.187.187,0,0,1,.121.06,1.314,1.314,0,0,0,.3.181c.241.181.6.362,1.085.663.964.543,2.351,1.386,4.159,2.23a50.894,50.894,0,0,0,6.51,2.532,20.82,20.82,0,0,0,4.039.844,13.315,13.315,0,0,0,4.34-.3,7.721,7.721,0,0,0,2.049-.844,7.437,7.437,0,0,0,1.748-1.326,14.079,14.079,0,0,0,2.471-3.255c.663-1.145,1.206-2.23,1.808-3.255.543-1.025,1.025-1.989,1.507-2.893.9-1.748,1.688-3.195,2.17-4.159.241-.482.482-.844.6-1.145a1.316,1.316,0,0,1,.181-.3c.121-.06.121-.121.121-.121" transform="translate(-115.862 -153.891)" fill="#fff"/>
    <path id="Path_651" data-name="Path 651" d="M599.779,377.5a.187.187,0,0,1-.06.121c-.06.06-.06.181-.181.3-.12.3-.362.663-.6,1.206-.542,1.025-1.326,2.532-2.23,4.4-.482.9-1.025,1.929-1.567,3.014s-1.145,2.23-1.808,3.5a17.154,17.154,0,0,1-2.471,3.556A8.6,8.6,0,0,1,587,396.186a12.327,12.327,0,0,1-4.641.6,23.432,23.432,0,0,1-4.28-.784,48.713,48.713,0,0,1-6.872-2.592,48.089,48.089,0,0,1-4.34-2.351c-.482-.3-.9-.543-1.145-.723a1.318,1.318,0,0,1-.3-.181.187.187,0,0,0-.121-.06.187.187,0,0,1,.121.06,1.317,1.317,0,0,0,.3.181c.3.181.663.422,1.145.663,1.025.6,2.471,1.386,4.34,2.291a46.386,46.386,0,0,0,6.872,2.532,22.768,22.768,0,0,0,4.219.784,12.763,12.763,0,0,0,4.521-.542,8.6,8.6,0,0,0,3.737-2.532,19.819,19.819,0,0,0,2.471-3.556q.995-1.808,1.808-3.436c.542-1.085,1.085-2.11,1.567-3.014.964-1.808,1.748-3.315,2.291-4.34.241-.482.482-.9.663-1.206a1.325,1.325,0,0,1,.181-.3c.181-.181.241-.181.241-.181" transform="translate(-115.521 -154.05)" fill="#fff"/>
    <path id="Path_652" data-name="Path 652" d="M629.439,333.557l-4.039,1.507,10.669,17.36,15.311-1.266s-2.833-3.858-2.773-6.811c.121-2.954-1.085-7.716-.3-9.946.844-2.23,1.025-3.978,3.014-3.617,2.049.362,10.006,3.315,10.006,3.315l1.808-.482-13.2-5.124s-10.006-3.315-13.563-1.025a50.364,50.364,0,0,0-6.932,6.088" transform="translate(-139.394 -133.857)" fill="#a7accf"/>
    <path id="Path_653" data-name="Path 653" d="M653.668,357.184a3.894,3.894,0,0,1-.6.121c-.422.06-.964.181-1.567.3-1.326.241-3.195.6-5.244,1.025s-3.858.9-5.184,1.206c-.663.181-1.145.3-1.567.422a2.109,2.109,0,0,1-.6.121l.542-.181c.362-.121.9-.3,1.567-.482,1.326-.362,3.134-.844,5.184-1.266s3.918-.784,5.244-.964c.663-.121,1.206-.181,1.628-.241.362-.06.6-.121.6-.06" transform="translate(-144.756 -145.97)" fill="#fff"/>
    <path id="Path_654" data-name="Path 654" d="M653.131,354.5c0,.06-3.436.9-7.716,1.929s-7.716,1.808-7.716,1.748,3.436-.9,7.716-1.929,7.716-1.808,7.716-1.748" transform="translate(-144.28 -144.912)" fill="#fff"/>
  </g>
</svg>
